<?xml version="1.0" standalone="no"?>
<!DOCTYPE svg PUBLIC "-//W3C//DTD SVG 20010904//EN"
 "http://www.w3.org/TR/2001/REC-SVG-20010904/DTD/svg10.dtd">
<svg version="1.0" xmlns="http://www.w3.org/2000/svg"
 width="1943.000000pt" height="425.000000pt" viewBox="0 0 1943.000000 425.000000"
 preserveAspectRatio="xMidYMid meet">

<g transform="translate(0.000000,425.000000) scale(0.100000,-0.100000)"
fill="#000000" stroke="none">
<path d="M16425 4229 c-133 -19 -296 -76 -420 -148 -472 -270 -652 -908 -403
-1420 205 -419 675 -651 1168 -576 426 64 742 357 851 786 16 63 22 128 26
262 l5 177 -511 0 -511 0 0 -210 0 -210 255 0 c287 0 273 5 231 -78 -97 -191
-315 -305 -556 -289 -262 17 -471 176 -557 424 -24 69 -27 92 -27 208 1 113 4
140 27 210 61 183 214 335 398 396 64 21 92 24 209 23 119 0 144 -3 208 -26
93 -33 167 -78 242 -146 l58 -52 174 137 c95 75 175 138 177 139 7 6 -124 137
-182 181 -220 170 -564 255 -862 212z"/>
<path d="M1008 3887 c-184 -326 -466 -826 -595 -1057 -42 -74 -87 -154 -100
-177 l-25 -43 369 0 368 0 63 113 c34 62 68 121 75 130 10 15 22 0 87 -113
l75 -130 378 0 378 0 -12 23 c-7 12 -180 319 -384 682 -205 363 -396 703 -425
755 -29 52 -58 103 -65 112 -9 14 -39 -31 -187 -295z"/>
<path d="M2582 3488 l3 -713 28 -89 c48 -155 109 -258 212 -361 182 -182 414
-267 684 -252 420 23 746 308 810 707 7 40 11 321 11 743 l0 677 -235 0 -235
0 0 -663 c0 -729 0 -734 -61 -829 -163 -253 -559 -242 -697 19 -16 32 -35 82
-41 111 -7 36 -11 267 -11 707 l0 655 -235 0 -236 0 3 -712z"/>
<path d="M4570 3980 l0 -220 290 0 290 0 0 -825 0 -825 235 0 235 0 0 825 0
825 290 0 290 0 0 220 0 220 -815 0 -815 0 0 -220z"/>
<path d="M6480 3155 l0 -1045 235 0 235 0 0 415 0 415 420 0 420 0 0 -415 0
-415 235 0 235 0 0 1045 0 1045 -235 0 -235 0 0 -410 0 -410 -420 0 -420 0 0
410 0 410 -235 0 -235 0 0 -1045z"/>
<path d="M8660 3155 l0 -1045 593 0 c657 0 648 -1 786 66 82 41 179 129 223
204 54 93 71 164 72 295 0 103 -4 131 -27 201 -45 135 -134 253 -236 311 -26
15 -48 28 -50 29 -2 2 24 31 57 64 176 176 210 468 78 674 -43 68 -135 150
-207 187 -114 57 -132 59 -736 59 l-553 0 0 -1045z m953 614 c47 -13 106 -63
123 -106 18 -42 18 -124 0 -166 -17 -43 -76 -93 -123 -106 -21 -6 -138 -11
-265 -11 l-228 0 0 200 0 200 228 0 c127 0 244 -5 265 -11z m107 -803 c49 -26
89 -65 112 -110 16 -31 19 -54 16 -111 -4 -88 -34 -140 -105 -182 l-48 -28
-287 -3 -288 -3 0 231 0 232 283 -4 c252 -3 286 -5 317 -22z"/>
<path d="M10590 3155 l0 -1045 235 0 235 0 0 355 0 355 118 0 117 -1 211 -352
211 -352 281 -3 c155 -1 282 0 282 3 0 3 -108 175 -240 382 l-241 377 78 40
c104 52 225 171 276 272 59 117 71 173 72 319 0 117 -3 139 -29 219 -70 213
-234 372 -461 447 -69 23 -76 24 -607 27 l-538 3 0 -1046z m1016 578 c48 -26
101 -82 122 -132 8 -21 15 -66 15 -107 0 -61 -4 -79 -30 -125 -38 -69 -103
-116 -175 -129 -30 -6 -149 -9 -264 -8 l-209 3 -3 263 -2 263 252 -3 c238 -3
255 -4 294 -25z"/>
<path d="M12530 3155 l0 -1045 235 0 235 0 0 1045 0 1045 -235 0 -235 0 0
-1045z"/>
<path d="M13400 3155 l0 -1046 508 3 507 4 98 26 c105 29 256 96 334 149 223
151 377 389 429 666 25 134 15 367 -20 488 -53 180 -140 329 -261 450 -125
126 -295 222 -482 273 l-98 26 -507 4 -508 3 0 -1046z m945 590 c149 -31 300
-136 374 -259 112 -187 121 -423 24 -618 -51 -100 -154 -203 -253 -252 -112
-54 -183 -66 -417 -66 l-203 0 0 605 0 605 203 0 c139 0 224 -5 272 -15z"/>
<path d="M17930 3155 l0 -1045 720 0 720 0 0 220 0 220 -485 0 -485 0 0 195 0
195 425 0 425 0 0 220 0 220 -425 0 -425 0 0 190 0 190 475 0 475 0 0 220 0
220 -710 0 -710 0 0 -1045z"/>
<path d="M12925 1677 c-83 -22 -141 -55 -195 -113 -61 -68 -85 -137 -78 -229
13 -157 106 -230 387 -300 223 -56 281 -96 281 -193 0 -108 -101 -182 -250
-182 -151 0 -269 91 -270 208 l0 32 -86 0 -87 0 6 -59 c18 -198 191 -331 432
-331 148 0 274 47 348 130 61 67 81 129 75 230 -10 165 -97 238 -370 306 -173
43 -229 66 -268 111 -92 104 27 253 201 253 127 0 220 -68 244 -177 l7 -33 80
0 81 0 -6 52 c-15 125 -101 231 -224 279 -71 27 -232 35 -308 16z"/>
<path d="M8700 1595 l0 -75 180 0 180 0 0 -500 0 -500 85 0 85 0 0 500 0 500
180 0 180 0 0 75 0 75 -445 0 -445 0 0 -75z"/>
<path d="M13661 1654 c-13 -9 -29 -32 -37 -50 -26 -63 24 -134 94 -134 46 0
102 55 102 100 0 45 -56 100 -102 100 -18 0 -44 -7 -57 -16z"/>
<path d="M16220 1095 l0 -575 80 0 80 0 0 575 0 575 -80 0 -80 0 0 -575z"/>
<path d="M16581 1654 c-13 -9 -29 -32 -37 -50 -26 -63 24 -134 94 -134 46 0
102 55 102 100 0 45 -56 100 -102 100 -18 0 -44 -7 -57 -16z"/>
<path d="M17106 1655 c-47 -17 -94 -59 -112 -102 -9 -20 -14 -69 -14 -128 l0
-95 -75 0 -75 0 0 -70 0 -70 75 0 75 0 0 -335 0 -335 80 0 80 0 0 335 0 335
80 0 80 0 0 70 0 70 -80 0 -80 0 0 79 c0 74 2 81 26 100 20 15 41 21 80 21
l54 0 0 70 0 70 -77 0 c-43 -1 -95 -7 -117 -15z"/>
<path d="M17441 1654 c-13 -9 -29 -32 -37 -50 -26 -63 24 -134 94 -134 46 0
102 55 102 100 0 45 -56 100 -102 100 -18 0 -44 -7 -57 -16z"/>
<path d="M19170 1441 l0 -228 -48 47 c-140 141 -401 87 -498 -102 -92 -180
-61 -430 68 -555 121 -117 315 -124 428 -14 l50 47 0 -58 0 -58 80 0 80 0 0
575 0 575 -80 0 -80 0 0 -229z m-98 -276 c30 -21 52 -49 73 -90 27 -54 30 -69
30 -155 0 -86 -3 -100 -30 -150 -40 -72 -96 -112 -169 -118 -101 -8 -176 37
-216 130 -34 78 -32 214 2 290 41 90 106 129 205 125 50 -2 71 -9 105 -32z"/>
<path d="M11830 1440 l0 -110 -70 0 -70 0 0 -70 0 -70 69 0 70 0 3 -267 c3
-244 5 -272 23 -308 32 -63 88 -88 208 -93 l97 -4 0 71 0 71 -58 0 c-36 0 -66
6 -80 16 -22 15 -22 18 -22 265 l0 249 80 0 80 0 0 70 0 70 -80 0 -80 0 0 110
0 110 -85 0 -85 0 0 -110z"/>
<path d="M9855 1321 c-44 -20 -74 -50 -98 -96 l-16 -30 -1 68 0 67 -75 0 -75
0 0 -405 0 -405 79 0 80 0 3 278 c3 265 4 279 25 312 12 20 41 46 64 59 35 20
51 23 100 18 l59 -5 0 79 0 79 -52 0 c-30 0 -71 -9 -93 -19z"/>
<path d="M11174 1329 c-22 -5 -65 -24 -94 -42 -42 -25 -61 -44 -83 -87 -25
-48 -28 -63 -24 -113 10 -113 76 -171 233 -208 212 -50 244 -67 244 -133 0
-71 -95 -117 -208 -102 -60 8 -92 31 -117 84 l-19 42 -78 0 -77 0 5 -32 c21
-117 104 -191 242 -218 116 -23 258 4 337 64 47 36 75 100 75 171 0 124 -72
181 -288 230 -124 27 -165 46 -181 82 -16 35 -14 57 11 88 44 56 138 71 213
35 40 -19 75 -63 75 -94 0 -13 13 -16 79 -16 l78 0 -8 45 c-11 61 -31 96 -75
135 -60 52 -117 72 -214 76 -47 2 -103 -1 -126 -7z"/>
<path d="M14299 1327 c-60 -22 -108 -57 -134 -95 l-25 -37 0 68 0 67 -80 0
-80 0 0 -405 0 -405 80 0 80 0 0 263 c1 324 9 354 105 398 86 40 181 11 216
-64 17 -38 19 -68 19 -319 l0 -278 80 0 79 0 3 289 c3 274 4 291 24 317 36 49
70 67 131 71 69 5 116 -16 151 -67 22 -32 22 -39 22 -321 l0 -289 80 0 80 0 0
303 c0 349 -4 371 -76 443 -69 69 -174 91 -285 58 -42 -12 -66 -28 -108 -72
-33 -33 -57 -50 -59 -43 -9 27 -67 83 -106 103 -51 26 -148 33 -197 15z"/>
<path d="M15620 1321 c-37 -13 -69 -34 -97 -65 l-43 -45 0 60 0 59 -80 0 -80
0 0 -565 0 -565 80 0 80 0 0 222 0 221 38 -40 c63 -68 112 -88 217 -88 78 1
97 5 142 28 71 37 120 88 154 161 108 232 29 521 -166 607 -70 31 -174 35
-245 10z m165 -140 c84 -39 127 -121 129 -246 1 -100 -17 -163 -60 -214 -46
-53 -106 -76 -181 -68 -78 8 -129 45 -168 122 -27 52 -30 68 -30 149 0 80 4
98 28 149 29 59 75 102 124 117 48 14 116 10 158 -9z"/>
<path d="M17995 1327 c-196 -65 -300 -252 -267 -477 18 -123 71 -217 156 -275
186 -125 464 -61 552 129 35 75 35 76 -51 76 -72 0 -75 -1 -89 -29 -71 -136
-299 -134 -377 4 -15 28 -31 69 -35 93 l-7 42 298 0 298 0 -5 83 c-13 216
-149 356 -353 364 -48 2 -96 -2 -120 -10z m180 -138 c53 -15 118 -83 132 -138
l11 -41 -219 0 -219 0 6 28 c30 125 152 189 289 151z"/>
<path d="M10122 1028 c3 -283 4 -306 24 -348 47 -101 130 -159 240 -168 88 -7
159 17 223 74 l51 46 0 -56 0 -56 75 0 75 0 0 405 0 405 -80 0 -80 0 0 -265
c0 -216 -3 -272 -15 -302 -21 -50 -42 -72 -90 -94 -89 -41 -200 -10 -239 66
-19 37 -21 60 -24 318 l-3 277 -80 0 -80 0 3 -302z"/>
<path d="M13640 925 l0 -405 80 0 80 0 0 405 0 405 -80 0 -80 0 0 -405z"/>
<path d="M16560 925 l0 -405 80 0 80 0 0 405 0 405 -80 0 -80 0 0 -405z"/>
<path d="M17420 925 l0 -405 80 0 80 0 0 405 0 405 -80 0 -80 0 0 -405z"/>
</g>
</svg>
